<svg xmlns="http://www.w3.org/2000/svg" width="22" height="31" fill="#4B0082">
  <path fill="#4B0082" d="M15.89.138c.42-.048.907.046 1.312.169.916.279 1.66.877 2.102 1.73.459.873.547 1.896.244 2.835-.384 1.159-1.208 1.741-2.237 2.277l.011 3.38c.736.224 1.452.479 2.12.866 1.534.89 2.585 2.39 3.025 4.097a6.98 6.98 0 0 1-.736 5.288c-.86 1.447-2.229 2.516-3.869 2.925-2.141.535-3.958-.045-5.798-1.14-.814.87-1.618 1.751-2.412 2.64.355.837.472 1.715.237 2.604-.23.87-.84 1.614-1.618 2.054-.874.495-1.868.585-2.826.311-.95-.272-1.748-.86-2.213-1.745-.456-.87-.495-1.888-.199-2.816.337-1.055 1.024-1.705 1.99-2.187 1.038-.406 1.897-.272 2.91.093.845-.889 1.64-1.822 2.494-2.702-.938-1.839-1.241-3.405-.754-5.431-1.062-.495-2.086-1.073-3.148-1.57-.567.591-1.26.996-2.075 1.133-.971.164-1.996-.101-2.795-.671a3.557 3.557 0 0 1-1.44-2.415c-.13-.94.117-1.975.719-2.716.62-.765 1.582-1.226 2.554-1.327a3.61 3.61 0 0 1 2.649.81c.945.791 1.218 1.776 1.333 2.95 1.006.617 2.159 1.093 3.208 1.644 1.364-1.614 2.362-2.122 4.351-2.736l.002-3.354a4.624 4.624 0 0 1-1.022-.544 3.597 3.597 0 0 1-1.427-2.423 3.638 3.638 0 0 1 .755-2.695c.657-.824 1.535-1.2 2.554-1.334Zm4.387 16.686a4.214 4.214 0 1 0-8.395.738 4.214 4.214 0 0 0 8.395-.738Z"/>
</svg>