<svg xmlns="http://www.w3.org/2000/svg" aria-hidden="true" style="position:absolute;width:0;height:0;overflow:hidden">
  <defs>
    <symbol id="icon-down-arrow-alt" viewBox="0 0 31 32">
      <path d="m23.945 16.611-1.81-1.81-5.495 5.495V8.026h-2.56v12.27l-5.495-5.495-1.81 1.81 8.585 8.585 8.585-8.585z"/>
    </symbol>
    <symbol id="icon-Facebook" viewBox="0 0 31 32">
      <path d="M28.16 16.51c0-7.112-5.731-12.878-12.8-12.878S2.56 9.398 2.56 16.51c0 6.428 4.681 11.756 10.8 12.722v-8.999h-3.25V16.51h3.25v-2.837c0-3.228 1.911-5.01 4.835-5.01 1.401 0 2.865.252 2.865.252v3.169h-1.614c-1.59 0-2.086.993-2.086 2.011v2.416h3.55l-.567 3.723H17.36v8.999c6.119-.966 10.8-6.294 10.8-12.722z"/>
    </symbol>
    <symbol id="icon-Instagram" viewBox="0 0 31 32">
      <path d="M20.48 4.912H10.24a6.4 6.4 0 0 0-6.4 6.4v10.24a6.4 6.4 0 0 0 6.4 6.4h10.24a6.4 6.4 0 0 0 6.4-6.4v-10.24a6.4 6.4 0 0 0-6.4-6.4zm4.16 16.64a4.172 4.172 0 0 1-4.16 4.16H10.24a4.172 4.172 0 0 1-4.16-4.16v-10.24a4.172 4.172 0 0 1 4.16-4.16h10.24a4.172 4.172 0 0 1 4.16 4.16v10.24zm-3.2-9.92a1.28 1.28 0 1 1 0-2.56 1.28 1.28 0 0 1 0 2.56zm-6.08-.96a5.749 5.749 0 0 1 5.76 5.76 5.76 5.76 0 1 1-5.76-5.76zm-3.52 5.76a3.52 3.52 0 1 0 7.04 0 3.52 3.52 0 0 0-7.04 0z"/>
    </symbol>
    <symbol id="icon-left-arrow-alt" viewBox="0 0 31 32">
      <path d="m16.265 22.612-5.495-5.495h12.27v-2.56H10.77l5.495-5.495-1.81-1.81-8.585 8.585 8.585 8.585 1.81-1.81z"/>
    </symbol>
    <symbol id="icon-logo-icon" viewBox="0 0 32 32">
      <path d="M17.284 3.195c.38-.041.82.039 1.185.142.827.235 1.5.738 1.899 1.456.415.736.494 1.596.221 2.387-.347.976-1.092 1.466-2.022 1.917l.01 2.845c.665.189 1.311.403 1.915.728a5.591 5.591 0 0 1 2.733 3.45 5.531 5.531 0 0 1-.665 4.452 5.645 5.645 0 0 1-3.495 2.461c-1.935.451-3.576-.037-5.24-.959-.735.732-1.462 1.473-2.179 2.222.32.704.427 1.444.214 2.192-.208.732-.758 1.359-1.462 1.73-.789.416-1.688.492-2.553.261-.858-.229-1.58-.724-1.999-1.469-.413-.732-.448-1.589-.18-2.371.305-.888.925-1.435 1.797-1.841.939-.342 1.715-.23 2.631.078.763-.748 1.481-1.534 2.252-2.275-.847-1.548-1.122-2.866-.681-4.572-.959-.417-1.883-.903-2.843-1.321a3.43 3.43 0 0 1-1.875.954 3.617 3.617 0 0 1-2.525-.566 2.967 2.967 0 0 1-1.301-2.033c-.119-.791.105-1.662.648-2.286.56-.644 1.43-1.032 2.308-1.117a3.427 3.427 0 0 1 2.392.681c.855.667 1.101 1.496 1.205 2.484.91.52 1.951.92 2.899 1.384 1.233-1.358 2.134-1.787 3.931-2.303l.002-2.824a4.27 4.27 0 0 1-.923-.458c-.709-.489-1.175-1.225-1.29-2.04a2.916 2.916 0 0 1 .682-2.269c.594-.694 1.387-1.01 2.307-1.123zm3.963 14.047c-.183-1.943-2.014-3.383-4.1-3.225-2.104.16-3.667 1.885-3.483 3.844s2.046 3.406 4.148 3.221c2.084-.183 3.618-1.898 3.435-3.841zM27.276 12.524c.089-.004.175-.005.264.007.277.037.549.162.702.388.162.24.184.56.206.838.11 1.377.028 2.809.028 4.19 0 1.128.134 2.658-.091 3.745-.071.341-.314.505-.605.69-.111.013-.227.027-.339.021a.944.944 0 0 1-.648-.294c-.16-.176-.155-.529-.169-.749-.102-1.584-.016-3.218-.014-4.806.001-.903-.132-2.63.071-3.436.073-.288.352-.439.595-.593zM24.726 14.736c.3.051.565.156.74.399.269.374.277 4.041.142 4.564-.074.286-.339.426-.591.563-.288-.016-.668-.04-.86-.273-.287-.346-.263-4.243-.1-4.732.095-.284.408-.404.67-.522z"/>
    </symbol>
    <symbol id="icon-logo" viewBox="0 0 110 32">
      <path d="M16.403.659c.434-.05.936.047 1.354.174.945.288 1.714.905 2.169 1.785.474.902.564 1.957.252 2.927-.397 1.196-1.247 1.797-2.309 2.35l.012 3.489c.759.232 1.498.495 2.187.894 1.584.919 2.669 2.467 3.123 4.23a7.206 7.206 0 0 1-.76 5.459c-.887 1.493-2.3 2.597-3.993 3.019-2.211.552-4.086-.047-5.986-1.176a156.6 156.6 0 0 0-2.489 2.725c.366.864.487 1.77.244 2.688-.237.897-.866 1.666-1.67 2.121-.901.51-1.928.603-2.916.321-.981-.281-1.805-.889-2.284-1.801-.472-.897-.511-1.949-.206-2.907.348-1.089 1.057-1.759 2.053-2.257 1.072-.419 1.958-.281 3.005.096.872-.917 1.693-1.88 2.574-2.789-.968-1.898-1.281-3.515-.778-5.606-1.096-.511-2.153-1.108-3.249-1.62-.586.61-1.301 1.028-2.142 1.169-1.003.169-2.061-.105-2.885-.694a3.671 3.671 0 0 1-1.486-2.493c-.135-.97.12-2.038.741-2.803.64-.789 1.634-1.265 2.637-1.37a3.727 3.727 0 0 1 2.734.836c.976.818 1.258 1.834 1.376 3.045 1.039.637 2.229 1.129 3.312 1.698 1.409-1.665 2.439-2.191 4.492-2.824l.002-3.463a4.767 4.767 0 0 1-1.055-.561 3.715 3.715 0 0 1-1.473-2.501 3.76 3.76 0 0 1 .779-2.782C14.446 1.187 15.353.8 16.404.661zm4.528 17.224a4.35 4.35 0 1 0-8.663.76 4.35 4.35 0 0 0 8.662-.76zM102.107 12.474c.708.001 1.416.011 2.124.029l-.004 3.742c.545-.424 1.14-.739 1.83-.843.933-.141 1.885.1 2.637.669.908.687 1.385 1.844 1.523 2.949.175 1.401-.154 2.749-1.019 3.866-.574.554-1.263.941-2.057 1.072-1.165.191-2.088-.216-2.997-.894l-.004.818-2.033-.003-.001-11.404zm3.64 4.904c-.631.21-1.07.51-1.378 1.118-.342.675-.365 1.508-.098 2.211.203.538.585 1.004 1.117 1.244.386.175.75.18 1.165.155.659-.249 1.102-.569 1.401-1.229.312-.689.307-1.52.011-2.214-.227-.533-.632-.963-1.177-1.174-.341-.131-.682-.149-1.042-.111zM41.272 12.452c1.246 3.84 2.84 7.575 4.055 11.425l-2.296.003c-.269-.822-.529-1.752-.939-2.512-.268-.115-.586-.076-.873-.073a122.7 122.7 0 0 1-3.323-.012c-.348.849-.628 1.722-.903 2.596l-2.339-.002c1.221-3.833 2.677-7.617 3.996-11.42.872.019 1.749-.001 2.622-.005zm-1.308 2.839c-.483 1.374-.934 2.768-1.464 4.125l1.681-.001 1.306-.015c-.184-.518-1.25-3.88-1.524-4.109zM89.685 12.477l2.196.013c-.03 2.647-.007 5.298-.007 7.945-.001 1.093.11 2.287-.013 3.365l-.121.083h-2.058l-.004-4.889c-1.645-.046-3.303-.005-4.949-.003l.001 4.894-2.209-.004.009-11.401 2.2.005.002 4.662h4.957l-.003-4.67zM93.202 15.637c.729.021 1.46.013 2.188.017-.009 1.165-.193 4.384.089 5.347.111.38.333.728.693.913.541.278 1.09.117 1.628-.072.238-.266.443-.515.561-.859.386-1.123.18-4.006.174-5.343.694.019 1.391.004 2.085 0-.016.8-.003 1.603-.004 2.404l.011 5.834c-.683.01-1.365.005-2.047-.015l-.063-.074a1.94 1.94 0 0 0-.018-.487c-.639.277-1.209.697-1.936.712-.843.017-1.758-.245-2.363-.852-.459-.459-.739-1.076-.883-1.703-.31-1.348-.127-4.332-.113-5.824zM63.686 15.407c1.089-.085 2.224-.008 3.104.725.617.514.816 1.13.883 1.897l-1.968-.002c-.113-.21-.227-.454-.404-.619a1.505 1.505 0 0 0-1.078-.377c-.298.016-.679.135-.865.387-.113.154-.175.311-.132.503.224 1.009 2.79.884 3.607 1.419.52.341.919.951 1.034 1.56a2.289 2.289 0 0 1-.409 1.775c-.627.865-1.593 1.175-2.599 1.329-.931.056-2.011-.194-2.756-.761-.699-.532-.95-1.185-1.045-2.025.663.002 1.326-.005 1.989-.018.039.125.082.246.145.361.289.533.865.651 1.4.808.353-.081.831-.172 1.082-.457.151-.172.204-.471.14-.691-.245-.843-2.703-.943-3.556-1.468-.505-.311-.876-.764-1.011-1.349-.121-.53-.075-1.125.223-1.59.538-.84 1.28-1.185 2.216-1.408zM76.93 15.405c.62-.05 1.227-.047 1.831.117.697.189 1.438.578 1.79 1.238.169.317.3.886.186 1.237-.565.122-1.255.04-1.835.033-.085-.287-.158-.509-.391-.707a1.415 1.415 0 0 0-1.062-.322c-.3.031-.685.178-.852.447-.1.16-.141.325-.078.509.362 1.068 2.535.814 3.38 1.297.538.308.988.848 1.141 1.454.164.65.056 1.372-.319 1.931-.56.835-1.449 1.149-2.388 1.331-.922.114-1.989-.082-2.759-.613-.791-.545-1.028-1.229-1.206-2.123l1.973-.015c.12.302.229.537.485.746.341.279.745.406 1.184.347.341-.045.676-.202.88-.487.133-.187.2-.414.136-.642-.247-.878-2.426-.823-3.29-1.288-.584-.315-1.046-.838-1.231-1.481a2.017 2.017 0 0 1 .196-1.599c.477-.81 1.353-1.206 2.231-1.409zM52.641 13.374c.655.023 1.315.009 1.97.011-.007.74.004 1.48.032 2.219l1.944.001-.004 1.694-1.851-.001c.001 1.066-.243 3.817.246 4.641.382.301 1.145.189 1.609.183l-.007 1.404c.004.145.004.218-.07.344-.259.124-.524.152-.81.154-.752.007-1.791-.129-2.331-.693-1.086-1.131-.739-4.457-.734-6.035l-1.254.002.004-1.698 1.249.008.007-2.236zM69.54 13.364l1.934.011c-.015.741.016 1.485.03 2.226l1.976-.004-.003 1.702-1.859-.001c.023 1.015-.226 3.85.234 4.617.494.295 1.113.216 1.669.215-.007.489.003.979.005 1.469l-.023.186c-.191.202-.486.194-.747.2-.794.019-1.891-.107-2.467-.71-1.075-1.126-.74-4.405-.731-5.978l-1.323.001c-.017-.564-.01-1.129-.015-1.692l1.318.007.004-2.249zM27.821 12.098c.102-.005.2-.007.302.008.316.046.628.198.802.476.185.294.21.687.235 1.028.125 1.688.032 3.444.032 5.138 0 1.384.153 3.26-.104 4.592-.081.419-.359.619-.691.846-.127.015-.259.033-.387.026a1.043 1.043 0 0 1-.74-.361c-.183-.216-.177-.648-.193-.919-.116-1.942-.018-3.946-.016-5.893.001-1.107-.151-3.225.082-4.213.083-.353.402-.539.68-.727zM50.243 15.574l.278-.003c.329.368.166 1.535.155 2.018-.696-.007-1.354-.035-1.899.471-1.023.949-.678 4.425-.688 5.82-.548-.005-1.617.195-2.035-.154l-.022-.346c.01-2.586-.055-5.169-.038-7.754.664.021 1.33.007 1.994.003l-.023 1.142c.123-.177.246-.366.389-.527.503-.568 1.186-.619 1.891-.669zM57.795 15.608l2.086.001.005 8.275-2.11-.003.019-8.273zM24.906 14.809c.343.063.645.192.845.489.308.459.316 4.955.162 5.596-.084.351-.388.522-.675.691-.33-.02-.763-.049-.983-.335-.327-.425-.3-5.203-.114-5.802.108-.348.466-.495.765-.639zM58.701 12.199a1.153 1.153 0 1 1 .27 2.29 1.153 1.153 0 0 1-.27-2.29z"/>
    </symbol>
    <symbol id="icon-right-arrow" viewBox="0 0 32 32">
      <path d="M7.381 29.181a1.343 1.343 0 0 0 1.378-.085l17.333-12a1.33 1.33 0 0 0 .422-1.715 1.327 1.327 0 0 0-.422-.477l-17.333-12a1.327 1.327 0 0 0-2.092 1.095v24a1.333 1.333 0 0 0 .714 1.181zM9.333 6.545 22.99 16 9.333 25.455V6.546z"/>
    </symbol>
    <symbol id="icon-right-arrow-alt" viewBox="0 0 31 32">
      <path d="m14.455 22.612 1.81 1.81 8.585-8.585-8.585-8.585-1.81 1.81 5.495 5.495H7.68v2.56h12.27l-5.495 5.495z"/>
    </symbol>
    <symbol id="icon-Youtube" viewBox="0 0 31 32">
      <path d="M27.639 9.981a3.199 3.199 0 0 0-2.255-2.261c-2.004-.55-10.024-.559-10.024-.559s-8.018-.009-10.024.517a3.272 3.272 0 0 0-2.261 2.275c-.529 2.004-.534 6.162-.534 6.162s-.005 4.178.52 6.162a3.204 3.204 0 0 0 2.257 2.259c2.025.55 10.022.559 10.022.559s8.019.009 10.024-.516a3.221 3.221 0 0 0 2.262-2.257c.53-2.003.534-6.159.534-6.159s.026-4.179-.521-6.184zm-14.844 9.987.006-7.68 6.665 3.846-6.671 3.834z"/>
    </symbol>
    <symbol id="icon-logo" viewBox="0 0 110 32">
<path fill="#764191" style="fill: var(--color1, #764191)" d="M16.404 0.849c0.434-0.050 0.936 0.047 1.354 0.174 0.945 0.288 1.714 0.904 2.169 1.784 0.474 0.902 0.564 1.958 0.252 2.927-0.397 1.196-1.248 1.798-2.311 2.351l0.012 3.489c0.759 0.232 1.498 0.494 2.188 0.893 1.585 0.918 2.668 2.467 3.123 4.23 0.48 1.848 0.208 3.812-0.759 5.46-0.887 1.493-2.3 2.596-3.993 3.018-2.211 0.552-4.087-0.046-5.987-1.175-0.84 0.898-1.67 1.806-2.489 2.724 0.366 0.864 0.488 1.771 0.245 2.689-0.237 0.897-0.866 1.666-1.67 2.121-0.901 0.51-1.928 0.602-2.916 0.32-0.981-0.281-1.805-0.888-2.284-1.8-0.472-0.897-0.511-1.949-0.206-2.907 0.348-1.089 1.056-1.759 2.052-2.257 1.072-0.419 1.959-0.281 3.006 0.096 0.872-0.917 1.692-1.881 2.573-2.79-0.968-1.898-1.281-3.515-0.778-5.606-1.095-0.511-2.152-1.107-3.248-1.619-0.586 0.61-1.302 1.028-2.143 1.169-1.003 0.169-2.060-0.105-2.884-0.694-0.817-0.592-1.354-1.494-1.486-2.494-0.135-0.969 0.12-2.037 0.741-2.802 0.64-0.789 1.634-1.266 2.637-1.371 0.986-0.096 1.969 0.205 2.733 0.836 0.976 0.818 1.259 1.835 1.377 3.046 1.039 0.637 2.229 1.128 3.312 1.697 1.409-1.665 2.439-2.191 4.492-2.824l0.001-3.463c-0.367-0.147-0.734-0.326-1.054-0.561-0.81-0.599-1.342-1.502-1.474-2.501-0.121-0.994 0.16-1.995 0.78-2.781 0.678-0.851 1.585-1.238 2.636-1.377zM20.931 18.073c-0.209-2.382-2.302-4.148-4.686-3.955-2.404 0.196-4.19 2.311-3.979 4.714s2.337 4.176 4.739 3.951c2.38-0.224 4.134-2.328 3.925-4.71z"></path>
<path fill="#764191" style="fill: var(--color1, #764191)" d="M102.108 12.663c0.708 0.001 1.416 0.010 2.124 0.028l-0.004 3.743c0.545-0.424 1.14-0.741 1.83-0.844 0.933-0.141 1.885 0.101 2.637 0.67 0.908 0.687 1.385 1.843 1.523 2.948 0.175 1.402-0.154 2.75-1.019 3.867-0.574 0.554-1.262 0.941-2.056 1.072-1.165 0.191-2.089-0.216-2.998-0.894l-0.004 0.818-2.033-0.004-0.001-11.403zM105.748 17.568c-0.631 0.21-1.070 0.509-1.378 1.117-0.342 0.675-0.365 1.509-0.098 2.212 0.203 0.538 0.585 1.004 1.117 1.244 0.386 0.175 0.749 0.18 1.165 0.155 0.659-0.249 1.102-0.569 1.401-1.229 0.312-0.689 0.307-1.52 0.011-2.214-0.227-0.533-0.632-0.963-1.177-1.174-0.341-0.131-0.682-0.149-1.042-0.111z"></path>
<path fill="#764191" style="fill: var(--color1, #764191)" d="M41.271 12.642c1.246 3.84 2.84 7.576 4.056 11.426l-2.296 0.002c-0.269-0.822-0.529-1.752-0.939-2.512-0.268-0.115-0.586-0.076-0.873-0.073-1.108 0.011-2.215 0.008-3.323-0.011-0.348 0.848-0.628 1.721-0.903 2.595l-2.339-0.002c1.221-3.833 2.677-7.617 3.996-11.42 0.872 0.019 1.749-0.002 2.622-0.005zM39.962 15.48c-0.483 1.374-0.934 2.768-1.464 4.125l1.681-0.001 1.307-0.014c-0.184-0.517-1.25-3.881-1.524-4.11z"></path>
<path fill="#764191" style="fill: var(--color1, #764191)" d="M89.685 12.666l2.196 0.013c-0.030 2.647-0.007 5.298-0.007 7.945-0.001 1.093 0.11 2.287-0.012 3.365l-0.121 0.083h-2.058l-0.004-4.889c-1.645-0.046-3.303-0.005-4.949-0.003l0.001 4.894-2.209-0.004 0.009-11.401 2.201 0.005 0.001 4.662h4.957l-0.003-4.67z"></path>
<path fill="#764191" style="fill: var(--color1, #764191)" d="M93.202 15.827c0.729 0.021 1.46 0.013 2.188 0.017-0.009 1.165-0.193 4.384 0.089 5.347 0.111 0.38 0.333 0.728 0.693 0.913 0.541 0.278 1.090 0.117 1.628-0.072 0.238-0.266 0.443-0.515 0.561-0.859 0.386-1.123 0.18-4.006 0.174-5.343 0.694 0.019 1.391 0.004 2.085 0-0.016 0.8-0.003 1.603-0.004 2.404l0.011 5.834c-0.683 0.010-1.365 0.005-2.047-0.015l-0.063-0.074c0.010-0.173 0.013-0.314-0.018-0.487-0.639 0.277-1.209 0.697-1.936 0.712-0.843 0.017-1.758-0.245-2.363-0.852-0.459-0.459-0.739-1.076-0.883-1.703-0.31-1.348-0.127-4.332-0.113-5.824z"></path>
<path fill="#764191" style="fill: var(--color1, #764191)" d="M63.686 15.597c1.089-0.085 2.224-0.008 3.104 0.725 0.617 0.514 0.816 1.13 0.883 1.897l-1.968-0.002c-0.113-0.21-0.227-0.455-0.404-0.619-0.284-0.262-0.694-0.398-1.078-0.377-0.298 0.016-0.679 0.135-0.865 0.387-0.113 0.154-0.175 0.311-0.132 0.503 0.224 1.009 2.79 0.884 3.607 1.419 0.52 0.341 0.919 0.951 1.034 1.56 0.115 0.623-0.033 1.266-0.409 1.775-0.627 0.865-1.593 1.175-2.599 1.329-0.931 0.056-2.011-0.194-2.756-0.761-0.699-0.532-0.95-1.185-1.045-2.025 0.663 0.001 1.326-0.005 1.989-0.018 0.039 0.125 0.082 0.245 0.145 0.361 0.289 0.533 0.865 0.651 1.4 0.808 0.353-0.081 0.831-0.172 1.082-0.457 0.151-0.172 0.204-0.471 0.14-0.691-0.245-0.843-2.703-0.943-3.556-1.468-0.505-0.311-0.876-0.764-1.011-1.349-0.121-0.53-0.075-1.125 0.223-1.59 0.538-0.84 1.28-1.185 2.216-1.408z"></path>
<path fill="#764191" style="fill: var(--color1, #764191)" d="M76.929 15.594c0.62-0.050 1.227-0.047 1.831 0.117 0.697 0.189 1.438 0.578 1.79 1.238 0.17 0.317 0.3 0.886 0.186 1.237-0.565 0.122-1.255 0.040-1.835 0.033-0.086-0.287-0.158-0.509-0.391-0.707-0.295-0.247-0.679-0.364-1.062-0.322-0.3 0.031-0.685 0.178-0.852 0.447-0.1 0.16-0.141 0.325-0.078 0.509 0.363 1.068 2.535 0.814 3.38 1.297 0.538 0.308 0.988 0.849 1.141 1.454 0.164 0.65 0.056 1.372-0.319 1.931-0.56 0.835-1.449 1.149-2.388 1.331-0.921 0.114-1.989-0.082-2.759-0.613-0.791-0.545-1.028-1.229-1.206-2.123l1.973-0.015c0.12 0.302 0.229 0.537 0.485 0.746 0.341 0.279 0.745 0.406 1.184 0.347 0.341-0.045 0.676-0.202 0.88-0.487 0.133-0.187 0.2-0.414 0.136-0.642-0.247-0.878-2.426-0.823-3.29-1.288-0.584-0.315-1.046-0.838-1.231-1.481-0.157-0.544-0.091-1.11 0.196-1.599 0.477-0.81 1.353-1.206 2.231-1.409z"></path>
<path fill="#764191" style="fill: var(--color1, #764191)" d="M52.64 13.563c0.655 0.023 1.315 0.009 1.97 0.011-0.007 0.74 0.004 1.479 0.032 2.219l1.944 0.001-0.004 1.694-1.851-0.001c0.001 1.066-0.243 3.817 0.246 4.641 0.382 0.301 1.145 0.189 1.609 0.183l-0.007 1.404c0.004 0.145 0.004 0.218-0.070 0.344-0.259 0.124-0.524 0.152-0.81 0.154-0.752 0.007-1.791-0.129-2.331-0.693-1.086-1.131-0.739-4.457-0.734-6.035l-1.254 0.002 0.004-1.698 1.249 0.008 0.007-2.236z"></path>
<path fill="#764191" style="fill: var(--color1, #764191)" d="M69.539 13.554l1.934 0.011c-0.015 0.741 0.016 1.485 0.030 2.226l1.975-0.004-0.003 1.702-1.859-0.001c0.023 1.015-0.226 3.85 0.234 4.617 0.494 0.295 1.113 0.216 1.668 0.215-0.007 0.489 0.003 0.979 0.005 1.469l-0.023 0.186c-0.191 0.203-0.486 0.194-0.747 0.2-0.794 0.019-1.891-0.107-2.467-0.71-1.075-1.126-0.74-4.405-0.731-5.978l-1.323 0.001c-0.017-0.564-0.010-1.129-0.015-1.692l1.318 0.007 0.004-2.249z"></path>
<path fill="#764191" style="fill: var(--color1, #764191)" d="M27.82 12.287c0.102-0.005 0.2-0.007 0.302 0.008 0.316 0.046 0.628 0.198 0.802 0.476 0.185 0.294 0.21 0.687 0.235 1.028 0.125 1.688 0.032 3.444 0.032 5.138-0 1.383 0.153 3.259-0.104 4.592-0.081 0.419-0.358 0.619-0.691 0.846-0.127 0.015-0.259 0.033-0.387 0.026-0.285-0.016-0.556-0.143-0.74-0.361-0.183-0.216-0.177-0.648-0.193-0.919-0.116-1.942-0.018-3.946-0.016-5.893 0.001-1.107-0.151-3.226 0.082-4.213 0.083-0.353 0.402-0.539 0.68-0.727z"></path>
<path fill="#764191" style="fill: var(--color1, #764191)" d="M50.244 15.764l0.278-0.003c0.329 0.368 0.166 1.535 0.155 2.018-0.696-0.007-1.354-0.035-1.899 0.471-1.023 0.949-0.678 4.425-0.688 5.82-0.548-0.005-1.617 0.195-2.035-0.153l-0.022-0.346c0.010-2.586-0.055-5.169-0.038-7.754 0.664 0.021 1.33 0.007 1.994 0.003l-0.023 1.142c0.123-0.177 0.245-0.366 0.388-0.527 0.503-0.568 1.186-0.619 1.891-0.669z"></path>
<path fill="#764191" style="fill: var(--color1, #764191)" d="M57.795 15.798l2.086 0.001 0.005 8.275-2.11-0.003 0.019-8.273z"></path>
<path fill="#764191" style="fill: var(--color1, #764191)" d="M24.906 14.999c0.343 0.063 0.645 0.192 0.845 0.489 0.308 0.459 0.316 4.955 0.162 5.596-0.084 0.351-0.388 0.522-0.675 0.691-0.33-0.020-0.763-0.049-0.983-0.335-0.327-0.425-0.3-5.203-0.114-5.802 0.108-0.348 0.466-0.495 0.765-0.639z"></path>
<path fill="#764191" style="fill: var(--color1, #764191)" d="M58.7 12.389c0.62-0.073 1.185 0.36 1.276 0.978s-0.325 1.195-0.939 1.304c-0.414 0.073-0.835-0.084-1.099-0.411s-0.33-0.772-0.171-1.161c0.159-0.389 0.516-0.661 0.933-0.71z"></path>
</symbol>
  </defs>
</svg>
